<svg width="20" height="20" viewBox="0 0 24 24" fill="none" xmlns="http://www.w3.org/2000/svg">
<path d="M19.144 10.8937C19.0932 10.9471 19.0321 10.9895 18.9644 11.0185C18.8967 11.0475 18.8238 11.0625 18.7502 11.0625C18.6766 11.0625 18.6037 11.0475 18.536 11.0185C18.4683 10.9895 18.4072 10.9471 18.3565 10.8937L12.5627 5.10938V20.25C12.5627 20.3992 12.5034 20.5423 12.398 20.6477C12.2925 20.7532 12.1494 20.8125 12.0002 20.8125C11.851 20.8125 11.7079 20.7532 11.6025 20.6477C11.497 20.5423 11.4377 20.3992 11.4377 20.25V5.10938L5.64396 10.8937C5.53953 10.9982 5.39789 11.0568 5.25021 11.0568C5.10252 11.0568 4.96088 10.9982 4.85646 10.8937C4.75203 10.7893 4.69336 10.6477 4.69336 10.5C4.69336 10.3523 4.75203 10.2107 4.85646 10.1063L11.6065 3.35625C11.6572 3.30293 11.7183 3.26047 11.786 3.23146C11.8537 3.20246 11.9266 3.1875 12.0002 3.1875C12.0738 3.1875 12.1467 3.20246 12.2144 3.23146C12.2821 3.26047 12.3432 3.30293 12.394 3.35625L19.144 10.1063C19.1973 10.157 19.2397 10.2181 19.2687 10.2858C19.2977 10.3535 19.3127 10.4264 19.3127 10.5C19.3127 10.5736 19.2977 10.6465 19.2687 10.7142C19.2397 10.7819 19.1973 10.843 19.144 10.8937Z" fill="currentColor"/>
</svg>